<?xml version="1.0" encoding="UTF-8"?><svg id="Layer_1" xmlns="http://www.w3.org/2000/svg" viewBox="0 0 32 32"><path d="M22.84,29.44l-4.14,1.39c-.27.09-.53.03-.7-.2l-1.69-2.39c-.81,0-1.55-.04-2.35-.17l-2.03,2.15c-.14.15-.42.2-.62.1l-3.92-1.95c-.18-.09-.37-.32-.33-.53l.5-2.97c-.57-.56-1.04-1.09-1.53-1.77l-2.94.07c-.25,0-.47-.11-.55-.37l-1.39-4.17c-.06-.19,0-.47.18-.59l2.43-1.74c0-.81.04-1.54.17-2.35l-2.15-2.03c-.15-.14-.21-.43-.11-.62l2.03-4.04c.1-.19.42-.22.6-.19l2.83.49c.57-.58,1.13-1.06,1.78-1.54l-.08-2.98c0-.16.14-.42.31-.48l4.24-1.42c.23-.08.49.02.63.22l1.69,2.39c.81,0,1.55.04,2.35.17l1.96-2.08c.13-.14.41-.31.6-.21l4.05,2.01c.19.09.32.36.28.56l-.49,2.92c.57.57,1.05,1.13,1.54,1.77l2.93-.07c.23,0,.47.14.55.37l1.39,4.17c.1.29-.04.5-.26.66l-2.34,1.67c0,.81-.05,1.54-.17,2.34l2.15,2.04c.18.17.2.45.09.66l-1.96,3.91c-.11.23-.37.32-.61.28l-2.87-.49c-.57.58-1.13,1.06-1.78,1.54l.08,2.93c0,.19-.11.46-.34.54ZM22.97,14.92c-1.53-4.57-6.79-9.17-12.14-7.39s-5.97,7.08-4.44,11.65,6.14,9.22,11.49,7.43c5.35-1.79,6.62-7.12,5.1-11.69Z"/></svg>